<svg width="100" height="24" viewBox="0 0 100 24" fill="none" xmlns="http://www.w3.org/2000/svg">
<path d="M0 20.0365C0 20.1418 0.00752543 20.2472 0.0225763 20.3525C0.0225763 20.3601 0.0301017 20.409 0.0451526 20.4993C0.0602035 20.6122 0.0677289 20.6611 0.0677289 20.646C0.210712 21.3609 0.564407 21.9517 1.12881 22.4183C1.70827 22.8848 2.37051 23.1181 3.11553 23.1181H7.74367H8.33065C8.30055 23.1181 8.33818 23.1144 8.44354 23.1068C9.57235 23.0692 10.3663 22.5311 10.8253 21.4926C11.0737 20.9282 11.2016 20.3187 11.2091 19.664V15.1148C13.2109 15.1299 14.8289 15.1374 16.063 15.1374C17.2972 15.1299 18.1476 15.1224 18.6142 15.1148C18.6969 15.1148 18.9001 15.1148 19.2237 15.1148C19.5774 15.1148 19.8333 15.1148 19.9913 15.1148C20.646 15.1073 21.2894 14.859 21.9216 14.3698C22.6892 13.7603 23.0843 12.9701 23.1068 11.9993V11.3897C23.0767 10.434 22.7644 9.7492 22.1699 9.3353C21.9291 9.16974 21.5754 9.04181 21.1088 8.9515C19.4909 8.85367 18.0723 8.77089 16.8532 8.70316C15.9727 8.66554 15.2766 8.64672 14.7649 8.64672C14.509 8.64672 14.2946 8.65049 14.1215 8.65801C13.7828 8.68059 13.5307 8.81981 13.3652 9.07567C12.7481 10.0766 11.7209 10.577 10.2835 10.577H10.2496C9.33154 10.577 8.54889 10.3475 7.9017 9.88842C7.24699 9.42937 6.91964 8.87249 6.91964 8.21777C6.92716 7.57059 7.25452 7.01747 7.9017 6.55841C8.54889 6.10689 9.32025 5.88113 10.2158 5.88113H10.2609C10.9533 5.88113 11.5854 6.02787 12.1573 6.32136C12.7067 6.5998 13.1131 6.96103 13.3765 7.40503C13.5345 7.66842 13.7828 7.8114 14.1215 7.83398C14.3171 7.84903 14.5805 7.85655 14.9116 7.85655C15.3707 7.85655 15.9652 7.8415 16.6952 7.8114C17.8616 7.75872 19.2538 7.68347 20.8718 7.58564C21.4738 7.51791 21.963 7.29967 22.3392 6.93092C22.851 6.41919 23.1068 5.64784 23.1068 4.61685V3.09295C23.1068 2.24258 22.8058 1.51261 22.2038 0.903052C21.6018 0.301017 20.8718 0 20.0139 0H3.09295C2.24258 0 1.51261 0.301017 0.903052 0.903052C0.301017 1.51261 0 2.24258 0 3.09295V19.6865V20.0365Z" fill="#FF4D4D"/>
<path d="M25.6423 11.5816C25.6423 14.6069 26.6696 17.2257 28.724 19.4382C30.7634 21.6431 33.2731 22.8698 36.2532 23.1181C36.5316 22.7494 36.6934 22.2866 36.7386 21.7297C36.8063 20.6234 36.8628 19.6564 36.9079 18.8286C36.9531 17.9858 36.9756 17.3085 36.9756 16.7968C36.9756 16.5108 36.9681 16.2775 36.9531 16.0969C36.938 15.7583 36.7988 15.5099 36.5354 15.3519C35.5345 14.7273 35.0341 13.6888 35.0341 12.2364C35.0341 11.3183 35.2636 10.5318 35.7227 9.87713C36.1892 9.22994 36.7461 8.90635 37.3933 8.90635C38.0405 8.91388 38.5936 9.24123 39.0527 9.88842C39.5042 10.5356 39.7299 11.307 39.7299 12.2025C39.7299 12.9325 39.5832 13.5796 39.2897 14.1441C39.0113 14.6859 38.6501 15.0923 38.206 15.3632C37.9427 15.5137 37.7997 15.762 37.7771 16.1082C37.762 16.2963 37.7545 16.556 37.7545 16.8871C37.7545 17.3461 37.7696 17.9444 37.7997 18.6819C37.8373 19.457 37.8862 20.3713 37.9464 21.4249C37.9464 22.0796 38.1722 22.629 38.6237 23.073C41.506 22.7268 43.9216 21.4663 45.8707 19.2914C47.8273 17.094 48.8056 14.5241 48.8056 11.5816C48.8056 8.38333 47.673 5.6516 45.4079 3.38645C43.1503 1.12882 40.4223 0 37.224 0C34.0257 0 31.2939 1.12882 29.0288 3.38645C26.7712 5.6516 25.6423 8.38333 25.6423 11.5816Z" fill="#FF4D4D"/>
<path d="M51.3298 11.5816C51.3298 14.6069 52.3571 17.2257 54.4115 19.4382C56.4509 21.6431 58.9606 22.8698 61.9407 23.1181C62.2191 22.7494 62.3809 22.2866 62.4261 21.7297C62.4938 20.6234 62.5503 19.6564 62.5954 18.8286C62.6406 17.9858 62.6631 17.3085 62.6631 16.7968C62.6631 16.5108 62.6556 16.2775 62.6406 16.0969C62.6255 15.7583 62.4863 15.5099 62.2229 15.3519C61.222 14.7273 60.7216 13.6888 60.7216 12.2364C60.7216 11.3183 60.9511 10.5318 61.4101 9.87713C61.8767 9.22994 62.4336 8.90635 63.0808 8.90635C63.728 8.91388 64.2811 9.24123 64.7402 9.88842C65.1917 10.5356 65.4174 11.307 65.4174 12.2025C65.4174 12.9325 65.2707 13.5796 64.9772 14.1441C64.6988 14.6859 64.3375 15.0923 63.8935 15.3632C63.6301 15.5137 63.4872 15.762 63.4646 16.1082C63.4495 16.2963 63.442 16.556 63.442 16.8871C63.442 17.3461 63.4571 17.9444 63.4872 18.6819C63.5248 19.457 63.5737 20.3713 63.6339 21.4249C63.6339 22.0796 63.8597 22.629 64.3112 23.073C67.1934 22.7268 69.6091 21.4663 71.5582 19.2914C73.5148 17.094 74.4931 14.5241 74.4931 11.5816C74.4931 8.38333 73.3605 5.6516 71.0954 3.38645C68.8378 1.12882 66.1098 0 62.9115 0C59.7132 0 56.9814 1.12882 54.7163 3.38645C52.4586 5.6516 51.3298 8.38333 51.3298 11.5816Z" fill="#FF4D4D"/>
<path d="M77.0173 19.9349C77.0173 20.7852 77.3183 21.5115 77.9204 22.1135C78.5224 22.7155 79.2486 23.0165 80.099 23.0165H87.0186C87.5379 23.0843 88.0421 23.1181 88.5312 23.1181C91.5339 23.1181 94.1377 22.1022 96.3426 20.0703C98.5325 18.046 99.7517 15.5551 100 12.5976C99.6388 12.3417 99.1948 12.1912 98.668 12.146C97.5693 12.0783 96.606 12.0256 95.7782 11.988C94.8752 11.9429 94.1603 11.9203 93.6335 11.9203C93.4002 11.9203 93.2083 11.924 93.0578 11.9316C92.7191 11.9542 92.4708 12.0934 92.3128 12.3492C91.6882 13.3501 90.6534 13.8506 89.2085 13.8506C88.2904 13.8506 87.5078 13.621 86.8606 13.162C86.2209 12.7105 85.9011 12.1649 85.9011 11.5252C85.9086 10.863 86.2322 10.3023 86.8719 9.84327C87.5191 9.39174 88.3017 9.16598 89.2198 9.16598C89.9122 9.16598 90.5443 9.31272 91.1162 9.60622C91.6581 9.88466 92.0607 10.2459 92.3241 10.6899C92.4821 10.9533 92.7267 11.0963 93.0578 11.1188C93.2384 11.1339 93.4754 11.1414 93.7689 11.1414C94.243 11.1414 94.8639 11.1226 95.6315 11.085C96.3991 11.0549 97.3059 11.0097 98.3519 10.9495C98.9916 10.9495 99.5334 10.735 99.9774 10.3061C99.6538 7.41631 98.4046 4.99312 96.2298 3.03651C94.0474 1.07237 91.4812 0.0903052 88.5312 0.0903052H88.52V0H80.099C79.2486 0 78.5224 0.301017 77.9204 0.903052C77.3183 1.50509 77.0173 2.23129 77.0173 3.08167V19.9349Z" fill="#FF4D4D"/>
</svg>
